<svg width="12" height="10" viewBox="0 0 12 10" fill="none" xmlns="http://www.w3.org/2000/svg">
<path d="M12 5.00003L7.44998 0.763574C7.36023 0.680011 7.25368 0.613725 7.13642 0.568501C7.01916 0.523276 6.89348 0.5 6.76655 0.5C6.63963 0.5 6.51395 0.523276 6.39669 0.568501C6.27943 0.613725 6.17288 0.680011 6.08313 0.763574C5.99338 0.847137 5.92219 0.946341 5.87362 1.05552C5.82505 1.1647 5.80005 1.28172 5.80005 1.3999C5.80005 1.51807 5.82505 1.63509 5.87362 1.74427C5.92219 1.85345 5.99338 1.95266 6.08313 2.03622L8.29966 4.1L0.96665 4.1C0.710279 4.1 0.464407 4.19482 0.283125 4.36361C0.101842 4.5324 0 4.76132 0 5.00003C0 5.23873 0.101842 5.46766 0.283125 5.63645C0.464407 5.80524 0.710279 5.90006 0.96665 5.90006L8.29966 5.90006L6.08313 7.96384C5.99305 8.04723 5.92157 8.14638 5.87279 8.25558C5.82401 8.36478 5.7989 8.48189 5.7989 8.60016C5.7989 8.71843 5.82401 8.83554 5.87279 8.94474C5.92157 9.05394 5.99305 9.15309 6.08313 9.23648C6.26441 9.40521 6.51023 9.5 6.76655 9.5C7.02287 9.5 7.2687 9.40521 7.44998 9.23648L12 5.00003Z" fill="white"/>
</svg>
