<svg width="20" height="20" viewBox="0 0 20 20" fill="none" xmlns="http://www.w3.org/2000/svg">
<g id="material-symbols:e911-emergency">
<path id="Vector" d="M4.16659 16.6667V15H5.49992L7.14575 9.52083C7.25686 9.15972 7.46186 8.87167 7.76075 8.65667C8.05964 8.44167 8.38936 8.33389 8.74992 8.33333H11.2499C11.611 8.33333 11.941 8.44111 12.2399 8.65667C12.5388 8.87222 12.7435 9.16028 12.8541 9.52083L14.4999 15H15.8333V16.6667H4.16659ZM9.16659 6.66667V2.5H10.8333V6.66667H9.16659ZM14.1249 8.72917L12.9374 7.54167L15.8958 4.60417L17.0624 5.77083L14.1249 8.72917ZM14.9999 12.5V10.8333H19.1666V12.5H14.9999ZM5.87492 8.72917L2.93742 5.77083L4.10409 4.60417L7.06242 7.54167L5.87492 8.72917ZM0.833252 12.5V10.8333H4.99992V12.5H0.833252Z" fill="#B22726"/>
</g>
</svg>
