<svg width="20" height="20" viewBox="0 0 20 20" fill="none" xmlns="http://www.w3.org/2000/svg">
<path d="M11.6667 17.8099V11.6666H3.54419C3.04705 11.6666 2.57027 11.864 2.21866 12.2155C1.86705 12.5669 1.66941 13.0436 1.66919 13.5408V14.3074C1.66919 14.7841 1.81919 15.2491 2.09502 15.6374C3.38002 17.4408 5.48336 18.3333 8.33335 18.3333C9.59169 18.3333 10.7059 18.1599 11.6667 17.8099ZM8.33335 1.67078C8.88053 1.67078 9.42235 1.77855 9.92787 1.98794C10.4334 2.19734 10.8927 2.50425 11.2796 2.89116C11.6665 3.27808 11.9735 3.73741 12.1829 4.24293C12.3922 4.74845 12.5 5.29027 12.5 5.83744C12.5 6.38462 12.3922 6.92643 12.1829 7.43196C11.9735 7.93748 11.6665 8.39681 11.2796 8.78372C10.8927 9.17063 10.4334 9.47755 9.92787 9.68694C9.42235 9.89633 8.88053 10.0041 8.33335 10.0041C7.22829 10.0041 6.16848 9.56512 5.38708 8.78372C4.60568 8.00232 4.16669 6.94251 4.16669 5.83744C4.16669 4.73237 4.60568 3.67257 5.38708 2.89116C6.16848 2.10976 7.22829 1.67078 8.33335 1.67078ZM17.7125 8.33328C18.5175 8.33328 19.1709 8.98661 19.1709 9.79161V17.7083C19.1709 18.095 19.0172 18.466 18.7437 18.7395C18.4702 19.013 18.0993 19.1666 17.7125 19.1666H13.9584C13.5716 19.1666 13.2006 19.013 12.9272 18.7395C12.6537 18.466 12.5 18.095 12.5 17.7083V9.79161C12.5 8.98661 13.1534 8.33328 13.9584 8.33328H17.7125ZM16.0442 15.8308H15.6275L15.5425 15.8366C15.3856 15.8582 15.2428 15.9385 15.1429 16.0614C15.0429 16.1842 14.9934 16.3404 15.0042 16.4984C15.015 16.6564 15.0853 16.8044 15.201 16.9125C15.3167 17.0206 15.4692 17.0807 15.6275 17.0808H16.0442L16.1284 17.0749C16.2852 17.0534 16.4279 16.9731 16.5279 16.8504C16.6278 16.7276 16.6774 16.5715 16.6667 16.4136C16.6561 16.2557 16.5859 16.1077 16.4703 15.9995C16.3548 15.8913 16.2025 15.831 16.0442 15.8308Z" fill="#B22726"/>
</svg>
