<svg width="20" height="20" viewBox="0 0 20 20" fill="none" xmlns="http://www.w3.org/2000/svg">
<path d="M9.75635 10.9125C9.20635 10.9125 8.75635 10.4625 8.75635 9.91248C8.75635 9.36248 9.20635 8.91248 9.75635 8.91248C10.3063 8.91248 10.7563 9.36248 10.7563 9.91248C10.7563 10.4625 10.3063 10.9125 9.75635 10.9125Z" fill="#B22726"/>
<path d="M10 14.375C11.1603 14.375 12.2731 13.9141 13.0936 13.0936C13.9141 12.2731 14.375 11.1603 14.375 10C14.375 8.83968 13.9141 7.72688 13.0936 6.90641C12.2731 6.08594 11.1603 5.625 10 5.625C8.83968 5.625 7.72688 6.08594 6.90641 6.90641C6.08594 7.72688 5.625 8.83968 5.625 10C5.625 11.1603 6.08594 12.2731 6.90641 13.0936C7.72688 13.9141 8.83968 14.375 10 14.375ZM10 7.1875C11.5312 7.20625 12.775 8.4875 12.775 10.0312V10.5375C12.775 11.0938 12.3187 11.55 11.7625 11.55C11.3812 11.55 11.05 11.3375 10.875 11.025C10.5875 11.3125 10.1875 11.4937 9.75 11.4937C8.875 11.4937 8.1625 10.7812 8.1625 9.90625C8.1625 9.03125 8.875 8.31875 9.75 8.31875C10.1313 8.31875 10.475 8.45625 10.75 8.675V8.61875C10.75 8.45625 10.8938 8.325 11.0563 8.325C11.2188 8.325 11.35 8.45625 11.35 8.61875V10.5438C11.35 10.6548 11.3941 10.7613 11.4726 10.8399C11.5512 10.9184 11.6577 10.9625 11.7688 10.9625C11.8798 10.9625 11.9863 10.9184 12.0649 10.8399C12.1434 10.7613 12.1875 10.6548 12.1875 10.5438V10.0375C12.1875 8.80625 11.2 7.79375 9.99375 7.775C9.39375 7.775 8.825 8 8.4 8.41875C7.975 8.8375 7.7375 9.4 7.7375 10C7.7375 11.225 8.7375 12.225 9.9625 12.225C10.0404 12.225 10.1151 12.2559 10.1702 12.311C10.2253 12.3661 10.2562 12.4408 10.2562 12.5188C10.2562 12.5967 10.2253 12.6714 10.1702 12.7265C10.1151 12.7816 10.0404 12.8125 9.9625 12.8125C8.4125 12.8125 7.15 11.55 7.15 10C7.15 9.24375 7.44375 8.53125 7.9875 8C8.525 7.4625 9.24375 7.175 10 7.1875Z" fill="#B22726"/>
<path d="M0.625001 4.38125C0.625001 3.68625 1.18625 3.125 1.88125 3.125H18.125C18.8181 3.125 19.375 3.69 19.375 4.38125V15.625C19.375 16.3181 18.81 16.875 18.1188 16.875H1.88125C1.71621 16.8752 1.55274 16.8429 1.40021 16.7799C1.24769 16.7168 1.1091 16.6243 0.992398 16.5076C0.875695 16.3909 0.78317 16.2523 0.720125 16.0998C0.65708 15.9473 0.624755 15.7838 0.625001 15.6188V4.38125ZM1.875 4.37813V4.68875L5.84375 7.2175C5.60935 7.56668 5.41994 7.94403 5.28 8.34063L1.875 6.17063V14.175L5.3875 11.9369C5.54969 12.3227 5.75966 12.6865 6.0125 13.02L1.925 15.625H18.0844L13.9863 13.0169C14.2392 12.683 14.4492 12.3187 14.6113 11.9325L18.125 14.1694V6.175L14.7175 8.34375C14.578 7.947 14.389 7.56944 14.155 7.22L18.125 4.69438V4.37688L18.1225 4.375H1.87813L1.87625 4.37625L1.875 4.37813Z" fill="#B22726"/>
</svg>
