<svg width="50" height="50" viewBox="0 0 50 50" fill="none" xmlns="http://www.w3.org/2000/svg">
<path d="M15.6252 41.6667H39.5835L45.8335 47.9167V26.0417C45.8335 23.75 43.9585 21.875 41.6668 21.875H15.6252C13.3335 21.875 11.4585 23.75 11.4585 26.0417V37.5C11.4585 39.7917 13.3335 41.6667 15.6252 41.6667Z" fill="#C13D22"/>
<path d="M29.9998 34.1667H26.2498L25.5207 36.3542H23.229L27.0832 25.9375H29.0623L32.9165 36.3542H30.6248L29.9998 34.1667ZM26.7707 32.5H29.3748L28.1248 28.5417L26.7707 32.5Z" fill="white"/>
<path d="M34.3748 26.0416H10.4165L4.1665 32.2916V8.33329C4.1665 6.04163 6.0415 4.16663 8.33317 4.16663H34.3748C36.6665 4.16663 38.5415 6.04163 38.5415 8.33329V21.875C38.5415 24.1666 36.6665 26.0416 34.3748 26.0416Z" fill="#E16B1C"/>
<path d="M26.4582 14.7917C26.4582 15.8334 26.2498 16.6667 25.9373 17.3959C25.6248 18.125 25.2082 18.75 24.5832 19.1667L26.354 20.5209L24.9998 21.7709L22.7082 20C22.4998 20 22.1873 20.1042 21.8748 20.1042C21.2498 20.1042 20.6248 20 19.9998 19.7917C19.479 19.5834 18.9582 19.1667 18.5415 18.75C18.1248 18.3334 17.8123 17.7084 17.604 17.0834C17.3957 16.4584 17.2915 15.7292 17.2915 14.8959V14.4792C17.2915 13.6459 17.3957 12.9167 17.604 12.2917C17.8123 11.6667 18.1248 11.0417 18.5415 10.625C18.9582 10.2084 19.3748 9.79171 19.9998 9.58337C20.5207 9.37504 21.1457 9.27087 21.8748 9.27087C22.4998 9.27087 23.1248 9.37504 23.7498 9.58337C24.2707 9.79171 24.7915 10.2084 25.2082 10.625C25.6248 11.0417 25.9373 11.6667 26.1457 12.2917C26.354 12.9167 26.4582 13.6459 26.4582 14.4792V14.7917ZM24.1665 14.2709C24.1665 13.125 23.9582 12.2917 23.5415 11.7709C23.1248 11.1459 22.604 10.9375 21.8748 10.9375C21.1457 10.9375 20.5207 11.25 20.2082 11.7709C19.7915 12.3959 19.5832 13.2292 19.5832 14.2709V14.7917C19.5832 15.3125 19.6873 15.8334 19.7915 16.25C19.8957 16.6667 19.9998 17.0834 20.2082 17.2917C20.4165 17.6042 20.6248 17.8125 20.9373 17.9167C21.2498 18.0209 21.5623 18.125 21.8748 18.125C22.604 18.125 23.229 17.8125 23.5415 17.2917C23.9582 16.6667 24.1665 15.8334 24.1665 14.6875V14.2709Z" fill="white"/>
</svg>
