<svg width="50" height="50" viewBox="0 0 50 50" fill="none" xmlns="http://www.w3.org/2000/svg">
<g id="flat-color-icons:faq">
<path id="Vector" d="M15.625 41.6667H39.5834L45.8334 47.9167V26.0417C45.8334 23.75 43.9584 21.875 41.6667 21.875H15.625C13.3334 21.875 11.4584 23.75 11.4584 26.0417V37.5C11.4584 39.7917 13.3334 41.6667 15.625 41.6667Z" fill="#C13D22"/>
<path id="Vector_2" d="M30 34.1667H26.25L25.5208 36.3542H23.2291L27.0833 25.9375H29.0625L32.9166 36.3542H30.625L30 34.1667ZM26.7708 32.5H29.375L28.125 28.5417L26.7708 32.5Z" fill="white"/>
<path id="Vector_3" d="M34.375 26.0416H10.4166L4.16663 32.2916V8.33329C4.16663 6.04163 6.04163 4.16663 8.33329 4.16663H34.375C36.6666 4.16663 38.5416 6.04163 38.5416 8.33329V21.875C38.5416 24.1666 36.6666 26.0416 34.375 26.0416Z" fill="#E16B1C"/>
<path id="Vector_4" d="M26.4583 14.7917C26.4583 15.8334 26.25 16.6667 25.9375 17.3959C25.625 18.125 25.2083 18.75 24.5833 19.1667L26.3541 20.5209L25 21.7709L22.7083 20C22.5 20 22.1875 20.1042 21.875 20.1042C21.25 20.1042 20.625 20 20 19.7917C19.4791 19.5834 18.9583 19.1667 18.5416 18.75C18.125 18.3334 17.8125 17.7084 17.6041 17.0834C17.3958 16.4584 17.2916 15.7292 17.2916 14.8959V14.4792C17.2916 13.6459 17.3958 12.9167 17.6041 12.2917C17.8125 11.6667 18.125 11.0417 18.5416 10.625C18.9583 10.2084 19.375 9.79171 20 9.58337C20.5208 9.37504 21.1458 9.27087 21.875 9.27087C22.5 9.27087 23.125 9.37504 23.75 9.58337C24.2708 9.79171 24.7916 10.2084 25.2083 10.625C25.625 11.0417 25.9375 11.6667 26.1458 12.2917C26.3541 12.9167 26.4583 13.6459 26.4583 14.4792V14.7917ZM24.1666 14.2709C24.1666 13.125 23.9583 12.2917 23.5416 11.7709C23.125 11.1459 22.6041 10.9375 21.875 10.9375C21.1458 10.9375 20.5208 11.25 20.2083 11.7709C19.7916 12.3959 19.5833 13.2292 19.5833 14.2709V14.7917C19.5833 15.3125 19.6875 15.8334 19.7916 16.25C19.8958 16.6667 20 17.0834 20.2083 17.2917C20.4166 17.6042 20.625 17.8125 20.9375 17.9167C21.25 18.0209 21.5625 18.125 21.875 18.125C22.6041 18.125 23.2291 17.8125 23.5416 17.2917C23.9583 16.6667 24.1666 15.8334 24.1666 14.6875V14.2709Z" fill="white"/>
</g>
</svg>
